<svg xmlns="http://www.w3.org/2000/svg" viewBox="0 0 500 500" id="Interface-Essential-Lock--Streamline-Pixel" height="500" width="500">
  <desc>
    Interface Essential Lock Streamline Icon: https://streamlinehq.com
  </desc>
  <title>interface-essential-lock</title>
  <g>
    <path d="M404.765625 214.21875h23.75v238.125h-23.75Z" fill="#ffffff" stroke-width="15.625"></path>
    <path d="M380.859375 452.34375h23.90625v23.90625h-23.90625Z" fill="#ffffff" stroke-width="15.625"></path>
    <path d="M118.984375 476.25h261.875V500H118.984375Z" fill="#ffffff" stroke-width="15.625"></path>
    <path d="M333.359375 23.75h23.75v23.90625h-23.75Z" fill="#ffffff" stroke-width="15.625"></path>
    <path d="m285.703125 309.53125 -23.75 0 0 -23.75 23.75 0 0 -23.90625 -71.40625 0 0 23.90625 -23.90625 0 0 47.5 23.90625 0 0 23.90625 23.75 0 0 71.40625 23.90625 0 0 -71.40625 23.75 0 0 -23.90625 23.75 0 0 -47.5 -23.75 0 0 23.75z" fill="#ffffff" stroke-width="15.625"></path>
    <path d="M166.640625 0h166.71875v23.75h-166.71875Z" fill="#ffffff" stroke-width="15.625"></path>
    <path d="M142.890625 23.75h23.75v23.90625h-23.75Z" fill="#ffffff" stroke-width="15.625"></path>
    <path d="m404.765625 214.21875 0 -23.75 -23.90625 0 0 -142.8125 -23.75 0 0 142.8125 -214.21875 0 0 -142.8125 -23.90625 0 0 142.8125 -23.75 0 0 23.75 309.53125 0z" fill="#ffffff" stroke-width="15.625"></path>
    <path d="M95.234375 452.34375h23.75v23.90625h-23.75Z" fill="#ffffff" stroke-width="15.625"></path>
    <path d="M71.484375 214.21875h23.75v238.125h-23.75Z" fill="#ffffff" stroke-width="15.625"></path>
  </g>
</svg>