<svg xmlns="http://www.w3.org/2000/svg" viewBox="0 0 500 500" id="Interface-Essential-Signout-Logout--Streamline-Pixel" height="500" width="500">
  <desc>
    Interface Essential Signout Logout Streamline Icon: https://streamlinehq.com
  </desc>
  <title>interface-essential-signout-logout</title>
  <g>
    <path d="m392.890625 142.8125 0 71.40625 -95.3125 0 0 47.65625 95.3125 0 0 71.40625 23.75 0 0 -23.75 23.90625 0 0 -23.75 23.75 0 0 -23.90625 23.75 0 0 -47.65625 -23.75 0 0 -23.75 -23.75 0 0 -23.75 -23.90625 0 0 -23.90625 -23.75 0z" fill="#ffffff" stroke-width="15.625"></path>
    <path d="M321.484375 333.28125h23.75v95.3125h-23.75Z" fill="#ffffff" stroke-width="15.625"></path>
    <path d="M321.484375 23.75h23.75v119.0625h-23.75Z" fill="#ffffff" stroke-width="15.625"></path>
    <path d="m226.171875 476.25 0 -23.90625 95.3125 0 0 -23.75 -95.3125 0 0 -309.53125 -23.75 0 0 357.1875 23.75 0z" fill="#ffffff" stroke-width="15.625"></path>
    <path d="M131.015625 476.25h71.40625V500h-71.40625Z" fill="#ffffff" stroke-width="15.625"></path>
    <path d="M154.765625 261.875h23.75v47.65625h-23.75Z" fill="#ffffff" stroke-width="15.625"></path>
    <path d="M154.765625 95.3125h47.65625v23.75h-47.65625Z" fill="#ffffff" stroke-width="15.625"></path>
    <path d="M83.359375 452.34375h47.65625v23.90625h-47.65625Z" fill="#ffffff" stroke-width="15.625"></path>
    <path d="M107.109375 71.40625h47.65625V95.3125h-47.65625Z" fill="#ffffff" stroke-width="15.625"></path>
    <path d="M35.703125 428.59375h47.65625v23.75h-47.65625Z" fill="#ffffff" stroke-width="15.625"></path>
    <path d="M59.609375 47.65625h47.5v23.75h-47.5Z" fill="#ffffff" stroke-width="15.625"></path>
    <path d="m35.703125 0 0 23.75 -23.75 0 0 404.84375 23.75 0 0 -380.9375 23.90625 0 0 -23.90625 261.875 0 0 -23.75 -285.78125 0z" fill="#ffffff" stroke-width="15.625"></path>
  </g>
</svg>