<svg xmlns="http://www.w3.org/2000/svg" viewBox="0 0 500 500" id="Interface-Essential-Refresh--Streamline-Pixel" height="500" width="500">
  <desc>
    Interface Essential Refresh Streamline Icon: https://streamlinehq.com
  </desc>
  <title>interface-essential-refresh</title>
  <g>
    <path d="M428.59375 190.46875h23.75v119.0625h-23.75Z" fill="#ffffff" stroke-width="15.625"></path>
    <path d="M404.84375 309.53125h23.75v47.65625h-23.75Z" fill="#ffffff" stroke-width="15.625"></path>
    <path d="M404.84375 142.8125h23.75v47.65625h-23.75Z" fill="#ffffff" stroke-width="15.625"></path>
    <path d="m428.59375 119.0625 0 -23.75 23.75 0 0 -23.90625 -119.0625 0 0 119.0625 23.90625 0 0 -23.75 23.75 0 0 -23.90625 23.90625 0 0 -23.75 23.75 0z" fill="#ffffff" stroke-width="15.625"></path>
    <path d="M380.9375 357.1875h23.90625v23.75h-23.90625Z" fill="#ffffff" stroke-width="15.625"></path>
    <path d="M357.1875 380.9375h23.75v23.90625h-23.75Z" fill="#ffffff" stroke-width="15.625"></path>
    <path d="M309.53125 404.84375h47.65625v23.75h-47.65625Z" fill="#ffffff" stroke-width="15.625"></path>
    <path d="M214.21875 428.59375h95.3125v23.75h-95.3125Z" fill="#ffffff" stroke-width="15.625"></path>
    <path d="M190.46875 47.65625h95.3125v23.75h-95.3125Z" fill="#ffffff" stroke-width="15.625"></path>
    <path d="M142.8125 71.40625h47.65625V95.3125H142.8125Z" fill="#ffffff" stroke-width="15.625"></path>
    <path d="M119.0625 95.3125h23.75v23.75H119.0625Z" fill="#ffffff" stroke-width="15.625"></path>
    <path d="M95.3125 119.0625h23.75v23.75H95.3125Z" fill="#ffffff" stroke-width="15.625"></path>
    <path d="m71.40625 380.9375 0 23.90625 -23.75 0 0 23.75 119.0625 0 0 -119.0625 -23.90625 0 0 23.75 -23.75 0 0 23.90625 -23.75 0 0 23.75 -23.90625 0z" fill="#ffffff" stroke-width="15.625"></path>
    <path d="M71.40625 309.53125H95.3125v47.65625H71.40625Z" fill="#ffffff" stroke-width="15.625"></path>
    <path d="M71.40625 142.8125H95.3125v47.65625H71.40625Z" fill="#ffffff" stroke-width="15.625"></path>
    <path d="M47.65625 190.46875h23.75v119.0625H47.65625Z" fill="#ffffff" stroke-width="15.625"></path>
  </g>
</svg>