<svg xmlns="http://www.w3.org/2000/svg" viewBox="0 0 500 500" id="Interface-Essential-Alarm-Bell-Sleep--Streamline-Pixel" height="300" width="300">
  <desc>
    Interface Essential Alarm Bell Sleep Streamline Icon: https://streamlinehq.com
  </desc>
  <title>interface-essential-alarm-bell-sleep</title>
  <g>
    <path d="M476.25 47.65625H500v23.75h-23.75Z" fill="#ffffff" stroke-width="15.625"></path>
    <path d="M452.34375 71.40625h23.90625v23.75h-23.90625Z" fill="#ffffff" stroke-width="15.625"></path>
    <path d="M380.9375 23.75h95.3125v23.90625h-95.3125Z" fill="#ffffff" stroke-width="15.625"></path>
    <path d="M428.59375 380.9375h23.75v47.65625h-23.75Z" fill="#ffffff" stroke-width="15.625"></path>
    <path d="M428.59375 95.15625h23.75v23.90625h-23.75Z" fill="#ffffff" stroke-width="15.625"></path>
    <path d="M404.84375 428.59375h23.75v23.75h-23.75Z" fill="#ffffff" stroke-width="15.625"></path>
    <path d="M404.84375 357.1875h23.75v23.75h-23.75Z" fill="#ffffff" stroke-width="15.625"></path>
    <path d="M404.84375 166.71875H500v23.75h-95.15625Z" fill="#ffffff" stroke-width="15.625"></path>
    <path d="M404.84375 119.0625h23.75v23.75h-23.75Z" fill="#ffffff" stroke-width="15.625"></path>
    <path d="M380.9375 238.125h23.90625v119.0625h-23.90625Z" fill="#ffffff" stroke-width="15.625"></path>
    <path d="M380.9375 142.8125h23.90625v23.90625h-23.90625Z" fill="#ffffff" stroke-width="15.625"></path>
    <path d="M357.1875 452.34375h47.65625v23.90625h-47.65625Z" fill="#ffffff" stroke-width="15.625"></path>
    <path d="M357.1875 404.6875h23.75v23.90625h-23.75Z" fill="#ffffff" stroke-width="15.625"></path>
    <path d="M357.1875 190.46875h23.75v47.65625h-23.75Z" fill="#ffffff" stroke-width="15.625"></path>
    <path d="m190.46875 428.59375 23.90625 0 0 23.75 71.40625 0 0 -23.75 23.75 0 0 -23.90625 47.65625 0 0 -23.75 -214.21875 0 0 23.75 47.5 0 0 23.90625z" fill="#ffffff" stroke-width="15.625"></path>
    <path d="M333.4375 166.71875h23.75v23.75h-23.75Z" fill="#ffffff" stroke-width="15.625"></path>
    <path d="M142.96875 476.25h214.21875V500H142.96875Z" fill="#ffffff" stroke-width="15.625"></path>
    <path d="M285.78125 142.8125h47.65625v23.90625h-47.65625Z" fill="#ffffff" stroke-width="15.625"></path>
    <path d="M214.375 119.0625h71.40625v23.75h-71.40625Z" fill="#ffffff" stroke-width="15.625"></path>
    <path d="M166.71875 142.8125h47.65625v23.90625h-47.65625Z" fill="#ffffff" stroke-width="15.625"></path>
    <path d="M142.96875 166.71875h23.75v23.75H142.96875Z" fill="#ffffff" stroke-width="15.625"></path>
    <path d="M142.96875 23.75h23.75v23.90625H142.96875Z" fill="#ffffff" stroke-width="15.625"></path>
    <path d="M95.3125 452.34375h47.65625v23.90625H95.3125Z" fill="#ffffff" stroke-width="15.625"></path>
    <path d="M119.0625 404.6875h23.90625v23.90625H119.0625Z" fill="#ffffff" stroke-width="15.625"></path>
    <path d="M119.0625 190.46875h23.90625v47.65625H119.0625Z" fill="#ffffff" stroke-width="15.625"></path>
    <path d="M119.0625 95.15625h47.65625v23.90625H119.0625Z" fill="#ffffff" stroke-width="15.625"></path>
    <path d="M119.0625 47.65625h23.90625v23.75H119.0625Z" fill="#ffffff" stroke-width="15.625"></path>
    <path d="M95.3125 0h47.65625v23.75H95.3125Z" fill="#ffffff" stroke-width="15.625"></path>
    <path d="M95.3125 238.125h23.75v119.0625H95.3125Z" fill="#ffffff" stroke-width="15.625"></path>
    <path d="M95.3125 71.40625h23.75v23.75H95.3125Z" fill="#ffffff" stroke-width="15.625"></path>
    <path d="M71.40625 428.59375H95.3125v23.75H71.40625Z" fill="#ffffff" stroke-width="15.625"></path>
    <path d="M71.40625 357.1875H95.3125v23.75H71.40625Z" fill="#ffffff" stroke-width="15.625"></path>
    <path d="M47.65625 380.9375h23.75v47.65625H47.65625Z" fill="#ffffff" stroke-width="15.625"></path>
    <path d="M47.65625 190.46875h23.75v23.75H47.65625Z" fill="#ffffff" stroke-width="15.625"></path>
    <path d="M23.90625 261.875h47.5v23.75H23.90625Z" fill="#ffffff" stroke-width="15.625"></path>
    <path d="M23.90625 214.21875h23.75v23.90625H23.90625Z" fill="#ffffff" stroke-width="15.625"></path>
    <path d="M0 166.71875h47.65625v23.75H0Z" fill="#ffffff" stroke-width="15.625"></path>
    <path d="M0 238.125h23.90625v23.75H0Z" fill="#ffffff" stroke-width="15.625"></path>
  </g>
</svg>