<svg xmlns="http://www.w3.org/2000/svg" viewBox="0 0 500 500" id="Photography-Light-Mode-Flash-On--Streamline-Pixel" height="500" width="500">
  <desc>
    Photography Light Mode Flash On Streamline Icon: https://streamlinehq.com
  </desc>
  <title>photography-light-mode-flash-on</title>
  <g>
    <path d="M476.25 190.46875H500v119.0625h-23.75Z" fill="#ffffff" stroke-width="15.625"></path>
    <path d="M452.5 309.53125h23.75v47.65625h-23.75Z" fill="#ffffff" stroke-width="15.625"></path>
    <path d="M452.5 142.96875h23.75v47.5h-23.75Z" fill="#ffffff" stroke-width="15.625"></path>
    <path d="M428.59375 357.1875h23.90625v47.65625h-23.90625Z" fill="#ffffff" stroke-width="15.625"></path>
    <path d="M428.59375 95.3125h23.90625v47.65625h-23.90625Z" fill="#ffffff" stroke-width="15.625"></path>
    <path d="M404.84375 404.84375h23.75v23.75h-23.75Z" fill="#ffffff" stroke-width="15.625"></path>
    <path d="M404.84375 71.5625h23.75V95.3125h-23.75Z" fill="#ffffff" stroke-width="15.625"></path>
    <path d="M357.1875 428.59375h47.65625v23.90625h-47.65625Z" fill="#ffffff" stroke-width="15.625"></path>
    <path d="M357.1875 47.65625h47.65625v23.90625h-47.65625Z" fill="#ffffff" stroke-width="15.625"></path>
    <path d="M309.53125 452.5h47.65625v23.75h-47.65625Z" fill="#ffffff" stroke-width="15.625"></path>
    <path d="M309.53125 23.90625h47.65625v23.75h-47.65625Z" fill="#ffffff" stroke-width="15.625"></path>
    <path d="m238.125 95.3125 0 23.75 -23.75 0 0 23.90625 -23.75 0 0 23.75 -23.90625 0 0 23.75 -23.75 0 0 23.90625 -23.90625 0 0 47.65625 23.90625 0 0 23.75 71.40625 0 0 23.75 -23.75 0 0 47.65625 -23.90625 0 0 47.65625 47.65625 0 0 -23.90625 23.75 0 0 -23.75 23.90625 0 0 -23.75 23.75 0 0 -23.90625 23.75 0 0 -23.75 23.90625 0 0 -47.65625 -23.90625 0 0 -23.75 -47.5 0 0 -23.90625 23.75 0 0 -23.75 23.75 0 0 -23.75 23.90625 0 0 -47.65625 -95.3125 0z" fill="#ffffff" stroke-width="15.625"></path>
    <path d="M190.625 476.25h118.90625V500H190.625Z" fill="#ffffff" stroke-width="15.625"></path>
    <path d="M190.625 0h118.90625v23.90625H190.625Z" fill="#ffffff" stroke-width="15.625"></path>
    <path d="M142.96875 452.5h47.65625v23.75H142.96875Z" fill="#ffffff" stroke-width="15.625"></path>
    <path d="M142.96875 23.90625h47.65625v23.75H142.96875Z" fill="#ffffff" stroke-width="15.625"></path>
    <path d="M95.3125 428.59375h47.65625v23.90625H95.3125Z" fill="#ffffff" stroke-width="15.625"></path>
    <path d="M95.3125 47.65625h47.65625v23.90625H95.3125Z" fill="#ffffff" stroke-width="15.625"></path>
    <path d="M71.5625 404.84375H95.3125v23.75H71.5625Z" fill="#ffffff" stroke-width="15.625"></path>
    <path d="M71.5625 71.5625H95.3125V95.3125H71.5625Z" fill="#ffffff" stroke-width="15.625"></path>
    <path d="M47.65625 357.1875h23.90625v47.65625H47.65625Z" fill="#ffffff" stroke-width="15.625"></path>
    <path d="M47.65625 95.3125h23.90625v47.65625H47.65625Z" fill="#ffffff" stroke-width="15.625"></path>
    <path d="M23.90625 309.53125h23.75v47.65625H23.90625Z" fill="#ffffff" stroke-width="15.625"></path>
    <path d="M23.90625 142.96875h23.75v47.5H23.90625Z" fill="#ffffff" stroke-width="15.625"></path>
    <path d="M0 190.46875h23.90625v119.0625H0Z" fill="#ffffff" stroke-width="15.625"></path>
  </g>
</svg>