<svg xmlns="http://www.w3.org/2000/svg" viewBox="0 0 500 500" id="User-Sleep--Streamline-Pixel" height="500" width="500">
  <desc>
    User Sleep Streamline Icon: https://streamlinehq.com
  </desc>
  <title>user-sleep</title>
  <g>
    <path d="M440.546875 23.75h23.75v23.75h-23.75Z" fill="#ffffff" stroke-width="15.625"></path>
    <path d="M416.640625 95.15625h47.65625v23.90625h-47.65625Z" fill="#ffffff" stroke-width="15.625"></path>
    <path d="M416.640625 47.5h23.90625v23.90625h-23.90625Z" fill="#ffffff" stroke-width="15.625"></path>
    <path d="M392.890625 0h47.65625v23.75h-47.65625Z" fill="#ffffff" stroke-width="15.625"></path>
    <path d="M392.890625 71.40625h23.75v23.75h-23.75Z" fill="#ffffff" stroke-width="15.625"></path>
    <path d="M345.234375 119.0625h23.75v23.75h-23.75Z" fill="#ffffff" stroke-width="15.625"></path>
    <path d="M321.484375 190.46875h47.5v23.75h-47.5Z" fill="#ffffff" stroke-width="15.625"></path>
    <path d="M321.484375 142.8125h23.75v23.75h-23.75Z" fill="#ffffff" stroke-width="15.625"></path>
    <path d="M297.578125 95.15625h47.65625v23.90625h-47.65625Z" fill="#ffffff" stroke-width="15.625"></path>
    <path d="M297.578125 166.5625h23.90625v23.90625h-23.90625Z" fill="#ffffff" stroke-width="15.625"></path>
    <path d="M226.171875 237.96875h23.90625v142.96875h-23.90625Z" fill="#ffffff" stroke-width="15.625"></path>
    <path d="M202.421875 214.21875h23.75v23.75h-23.75Z" fill="#ffffff" stroke-width="15.625"></path>
    <path d="M202.421875 47.5h23.75v95.3125h-23.75Z" fill="#ffffff" stroke-width="15.625"></path>
    <path d="m202.421875 285.625 -23.90625 0 0 190.46875 -23.75 0 0 -95.15625 -23.75 0 0 95.15625 -23.90625 0 0 -190.46875 -23.75 0 0 95.3125 -23.90625 0 0 23.75 23.90625 0 0 95.3125 119.0625 0 0 -95.3125 23.75 0 0 -23.75 -23.75 0 0 -95.3125z" fill="#ffffff" stroke-width="15.625"></path>
    <path d="M178.515625 190.46875h23.90625v23.75h-23.90625Z" fill="#ffffff" stroke-width="15.625"></path>
    <path d="M178.515625 142.8125h23.90625v23.75h-23.90625Z" fill="#ffffff" stroke-width="15.625"></path>
    <path d="M178.515625 23.75h23.90625v23.75h-23.90625Z" fill="#ffffff" stroke-width="15.625"></path>
    <path d="M107.109375 166.5625h71.40625v23.90625h-71.40625Z" fill="#ffffff" stroke-width="15.625"></path>
    <path d="M107.109375 0h71.40625v23.75h-71.40625Z" fill="#ffffff" stroke-width="15.625"></path>
    <path d="M83.359375 190.46875h23.75v23.75h-23.75Z" fill="#ffffff" stroke-width="15.625"></path>
    <path d="M83.359375 142.8125h23.75v23.75h-23.75Z" fill="#ffffff" stroke-width="15.625"></path>
    <path d="M83.359375 23.75h23.75v23.75h-23.75Z" fill="#ffffff" stroke-width="15.625"></path>
    <path d="M59.453125 214.21875h23.90625v23.75h-23.90625Z" fill="#ffffff" stroke-width="15.625"></path>
    <path d="M59.453125 47.5h23.90625v95.3125h-23.90625Z" fill="#ffffff" stroke-width="15.625"></path>
    <path d="M35.703125 237.96875h23.75v142.96875h-23.75Z" fill="#ffffff" stroke-width="15.625"></path>
  </g>
</svg>